#N canvas 635 152 349 444 10;
#X declare -lib moonlib;
#X obj 19 19 cnv 15 300 400 empty empty empty 20 12 0 14 -204786 -66577
0;
#N canvas 327 22 991 856 internal 0;
#X obj 119 530 f 2;
#X obj 121 562 pow;
#X obj 147 530 / 12;
#X obj 119 510 t b f;
#X obj 119 335 t b f;
#X obj 119 401 -;
#X obj 350 531 f 2;
#X obj 352 563 pow;
#X obj 378 531 / 12;
#X obj 350 511 t b f;
#X obj 350 336 t b f;
#X obj 363 402 -;
#X obj 352 199 moses 10;
#X obj 121 180 moses 10;
#X obj 119 485 line;
#X obj 350 488 line;
#X obj 350 423 t f b;
#X obj 371 467 f;
#X obj 140 465 f;
#X obj 119 430 t f b;
#X obj 367 118 readsf~;
#X obj 379 27 openpanel;
#X obj 379 5 bng 15 250 50 0 empty empty empty 17 7 0 10 -262144 -1
-1;
#X msg 431 71 open /Users/sburt/Documents/ToDo/sax recordings/silhouette-final.wav
;
#X obj 323 67 tgl 15 0 empty empty empty 17 7 0 10 -262144 -1 -1 0
1;
#X msg 396 49 set open \$1;
#X obj 166 211 t b f;
#X obj 166 254 select 3;
#X obj 397 220 t b f;
#X obj 397 263 select 1;
#X obj 566 528 f 2;
#X obj 568 560 pow;
#X obj 594 528 / 12;
#X obj 566 508 t b f;
#X obj 566 353 t b f;
#X obj 566 399 -;
#X obj 568 196 moses 10;
#X obj 566 485 line;
#X obj 566 420 t f b;
#X obj 587 464 f;
#X obj 613 217 t b f;
#X obj 613 260 select 1;
#X obj 119 370 f;
#X obj 364 379 f;
#X obj 566 376 f;
#X obj 233 29 adc~;
#X obj 166 234 counter 7;
#X obj 397 243 counter 5;
#X obj 613 240 counter 4;
#X obj 195 314 pipe 946.44;
#X obj 119 314 pipe 946.44;
#X obj 350 315 pipe 1346.44;
#X obj 430 316 pipe 1346.44;
#X obj 566 332 pipe 2246.44;
#X obj 267 16 r mic.on;
#X obj 267 61 line~;
#X obj 252 81 *~;
#X msg 267 41 \$1 10;
#X obj 786 28 import moonlib;
#X obj 466 209 r portamento;
#X obj 466 254 s portamento.r;
#X msg 466 233 set \$1;
#X obj 260 715 *~;
#X obj 187 724 *~;
#X obj 330 749 *~;
#X obj 506 733 *~;
#X obj 742 705 line~;
#X obj 275 657 r inputvolume;
#X obj 742 642 r processedvolume;
#X obj 275 695 line~;
#X msg 742 685 \$1 4;
#X msg 275 676 \$1 4;
#X msg 17 227 1024;
#X obj 17 249 / 44.1;
#X floatatom 8 371 11 0 0 0 - - -;
#X obj 8 349 + 946.44;
#X floatatom 7 419 11 0 0 0 - - -;
#X floatatom 7 462 11 0 0 0 - - -;
#X obj 7 397 + 1346.44;
#X obj 7 440 + 2246.44;
#X obj 646 332 pipe 2269.66;
#X obj 113 608 delread~ left 999.66;
#X obj 345 602 delread~ right 1399.66;
#X obj 559 601 delread~ next 2276.44;
#X obj 166 282 f 64;
#X obj 397 291 f 64;
#X obj 613 288 f 64;
#X text 21 82 650;
#X text 20 97 1051.7;
#X text 20 112 1701.7;
#N canvas 873 491 512 297 ctl 0;
#X obj 91 50 r delaymiddle;
#X obj 112 192 s delaymiddle.r;
#X msg 112 172 set \$1;
#X obj 185 50 r bpmmiddle;
#X msg 219 174 set \$1;
#X obj 219 194 s bpmmiddle.r;
#X obj 115 83 expr 60000 / $f1;
#X obj 219 147 expr 60000 / $f1;
#X obj 91 222 outlet;
#X connect 0 0 2 0;
#X connect 0 0 7 0;
#X connect 0 0 8 0;
#X connect 2 0 1 0;
#X connect 3 0 6 0;
#X connect 4 0 5 0;
#X connect 6 0 2 0;
#X connect 6 0 8 0;
#X connect 7 0 4 0;
#X restore 78 260 pd ctl;
#N canvas 873 491 512 297 ctl 0;
#X msg 112 172 set \$1;
#X msg 219 174 set \$1;
#X obj 115 83 expr 60000 / $f1;
#X obj 219 147 expr 60000 / $f1;
#X obj 91 222 outlet;
#X obj 91 50 r delayleft;
#X obj 185 50 r bpmleft;
#X obj 219 194 s bpmleft.r;
#X obj 112 191 s delayleft.r;
#X connect 0 0 8 0;
#X connect 1 0 7 0;
#X connect 2 0 0 0;
#X connect 2 0 4 0;
#X connect 3 0 1 0;
#X connect 5 0 0 0;
#X connect 5 0 3 0;
#X connect 5 0 4 0;
#X connect 6 0 2 0;
#X restore 294 271 pd ctl;
#N canvas 873 491 512 297 ctl 0;
#X msg 112 172 set \$1;
#X msg 219 174 set \$1;
#X obj 115 83 expr 60000 / $f1;
#X obj 219 147 expr 60000 / $f1;
#X obj 91 222 outlet;
#X obj 91 50 r delayright;
#X obj 185 50 r bpmright;
#X obj 112 191 s delayright.r;
#X obj 219 194 s bpmright.r;
#X connect 0 0 7 0;
#X connect 1 0 8 0;
#X connect 2 0 0 0;
#X connect 2 0 4 0;
#X connect 3 0 1 0;
#X connect 5 0 0 0;
#X connect 5 0 3 0;
#X connect 5 0 4 0;
#X connect 6 0 2 0;
#X restore 524 272 pd ctl;
#X obj 742 664 * 1;
#X obj 181 191 delwrite~ left 6000;
#X obj 416 187 delwrite~ right 6000;
#X obj 632 185 delwrite~ next 6000;
#X floatatom 42 335 11 0 0 0 - - -;
#X floatatom 628 448 5 0 0 0 - - -;
#X floatatom 445 430 5 0 0 0 - - -;
#X floatatom 193 436 5 0 0 0 - - -;
#N canvas 0 22 450 300 pblock~ 0;
#X obj 84 32 inlet~;
#X obj 84 154 outlet~;
#X obj 129 32 inlet;
#X obj 84 93 pvoc~ 20 8000;
#X obj 84 115 mindwarp~ 1 8;
#X obj 204 87 r warpwidth;
#X connect 0 0 3 0;
#X connect 2 0 3 1;
#X connect 2 0 4 1;
#X connect 3 0 4 0;
#X connect 4 0 1 0;
#X connect 5 0 4 2;
#X restore 113 657 pd pblock~;
#N canvas 0 22 450 300 pblock~ 0;
#X obj 84 32 inlet~;
#X obj 84 154 outlet~;
#X obj 129 32 inlet;
#X obj 84 93 pvoc~ 20 8000;
#X obj 84 115 mindwarp~ 1 8;
#X obj 194 77 r warpwidth;
#X connect 0 0 3 0;
#X connect 2 0 3 1;
#X connect 2 0 4 1;
#X connect 3 0 4 0;
#X connect 4 0 1 0;
#X connect 5 0 4 2;
#X restore 345 698 pd pblock~;
#N canvas 0 22 450 300 pblock~ 0;
#X obj 84 32 inlet~;
#X obj 84 154 outlet~;
#X obj 129 32 inlet;
#X obj 84 93 pvoc~ 20 8000;
#X obj 84 115 mindwarp~ 1 8;
#X obj 191 80 r warpwidth;
#X connect 0 0 3 0;
#X connect 2 0 3 1;
#X connect 2 0 4 1;
#X connect 3 0 4 0;
#X connect 4 0 1 0;
#X connect 5 0 4 2;
#X restore 559 633 pd pblock~;
#X msg 5 205 512;
#X msg 31 200 2048;
#X obj 121 159 sigmund~ -hop 2048 notes;
#X obj 352 160 sigmund~ -hop 2048 notes;
#X obj 568 157 sigmund~ -hop 2048 notes;
#X obj 78 284 + 46.44;
#X obj 294 296 + 46.44;
#X obj 524 294 + 46.44;
#X obj 90 218 r predel;
#X obj 90 239 t b f;
#X obj 284 226 r predel;
#X obj 284 247 t b f;
#X obj 557 227 r predel;
#X obj 557 248 t b f;
#X obj 36 302 s predel;
#X obj 36 274 * 3;
#X obj 31 160 loadbang;
#X obj 787 447 s warpwidth;
#X obj 787 403 loadbang;
#X msg 787 425 4;
#N canvas 0 22 1033 544 variablestorage 0;
#X obj 455 98 r portamento;
#X msg 407 166 set \$1;
#X obj 440 119 f;
#X obj 407 140 gate 5;
#X obj 417 78 r storein;
#X obj 73 281 s storein;
#X msg 407 186 17.1004;
#X msg 435 186 set \$1;
#X msg 435 206 19.7026;
#X msg 463 206 set \$1;
#X msg 463 226 98.6059;
#X msg 491 226 set \$1;
#X msg 491 246 81.2268;
#X msg 519 246 set \$1;
#X msg 519 266 81.2268;
#X obj 417 98 t b f;
#X obj 470 131 r getfrom;
#X obj 470 151 select 1 2 3 4 5;
#X obj 428 285 s portamento;
#X msg 587 168 set \$1;
#X obj 620 121 f;
#X obj 587 142 gate 5;
#X msg 587 188 0.945539;
#X msg 615 188 set \$1;
#X msg 615 208 1;
#X msg 643 208 set \$1;
#X msg 643 228 0.801227;
#X msg 671 228 set \$1;
#X msg 671 248 81.2268;
#X msg 699 248 set \$1;
#X msg 699 268 81.2268;
#X obj 597 100 t b f;
#X obj 650 133 r getfrom;
#X obj 650 153 select 1 2 3 4 5;
#X obj 608 287 s processedvolume;
#X msg 767 168 set \$1;
#X obj 800 121 f;
#X obj 767 142 gate 5;
#X msg 767 188 0;
#X msg 795 188 set \$1;
#X msg 795 208 81.2268;
#X msg 823 208 set \$1;
#X msg 823 228 1;
#X msg 851 228 set \$1;
#X msg 851 248 81.2268;
#X msg 879 248 set \$1;
#X msg 879 268 81.2268;
#X obj 777 100 t b f;
#X obj 830 133 r getfrom;
#X obj 830 153 select 1 2 3 4 5;
#X obj 788 287 s inputvolume;
#X msg 337 396 set \$1;
#X obj 370 349 f;
#X obj 337 370 gate 5;
#X msg 337 416 188.894;
#X msg 365 416 set \$1;
#X msg 365 436 680.442;
#X msg 393 436 set \$1;
#X msg 393 456 789.474;
#X msg 421 456 set \$1;
#X msg 421 476 81.2268;
#X msg 449 476 set \$1;
#X msg 449 496 680.442;
#X obj 347 328 t b f;
#X obj 400 361 r getfrom;
#X obj 400 381 select 1 2 3 4 5;
#X msg 587 398 set \$1;
#X obj 620 351 f;
#X obj 587 372 gate 5;
#X msg 587 418 627.708;
#X msg 615 418 set \$1;
#X msg 615 438 50;
#X msg 643 438 set \$1;
#X msg 643 458 487.805;
#X msg 671 458 set \$1;
#X msg 671 478 81.2268;
#X msg 699 478 set \$1;
#X msg 699 498 50;
#X obj 597 330 t b f;
#X obj 650 363 r getfrom;
#X obj 650 383 select 1 2 3 4 5;
#X msg 827 398 set \$1;
#X obj 860 351 f;
#X obj 827 372 gate 5;
#X msg 827 418 459.851;
#X msg 855 418 set \$1;
#X msg 855 438 50;
#X msg 883 438 set \$1;
#X msg 883 458 1276.6;
#X msg 911 458 set \$1;
#X msg 911 478 81.2268;
#X msg 939 478 set \$1;
#X msg 939 498 50;
#X obj 837 330 t b f;
#X obj 890 363 r getfrom;
#X obj 890 383 select 1 2 3 4 5;
#X obj 848 517 s delayright;
#X obj 608 517 s delaymiddle;
#X obj 358 515 s delayleft;
#X obj 57 166 r storein1;
#X msg 57 185 1;
#X obj 71 206 r storein2;
#X msg 71 225 2;
#X obj 127 166 r storein3;
#X msg 127 185 3;
#X obj 141 206 r storein4;
#X msg 141 225 4;
#X obj 198 166 r storein5;
#X msg 198 185 5;
#X msg 64 345 1;
#X msg 78 385 2;
#X msg 134 345 3;
#X msg 148 385 4;
#X msg 205 345 5;
#X obj 64 326 r getfrom1;
#X obj 134 326 r getfrom3;
#X obj 205 326 r getfrom5;
#X obj 148 366 r getfrom4;
#X obj 78 366 r getfrom2;
#X obj 80 441 s getfrom;
#X obj 35 242 bng 15 250 50 0 empty empty empty 17 7 0 10 -262144 -1
-1;
#X floatatom 362 167 5 0 0 0 - - -;
#X obj 483 313 r bpmmiddle;
#X obj 483 332 expr 60000 / $f1;
#X obj 734 330 expr 60000 / $f1;
#X obj 734 311 r bpmright;
#X obj 280 283 expr 60000 / $f1;
#X obj 280 264 r bpmleft;
#X floatatom 272 426 5 0 0 0 - - -;
#X obj 385 328 r delayleft;
#X obj 635 330 r delaymiddle;
#X obj 875 330 r delayright;
#X obj 837 310 r storein;
#X obj 597 310 r storein;
#X obj 347 308 r storein;
#X obj 597 80 r storein;
#X obj 777 80 r storein;
#X obj 635 99 r processedvolume;
#X obj 815 100 r inputvolume;
#X connect 0 0 2 1;
#X connect 1 0 6 0;
#X connect 2 0 3 1;
#X connect 2 0 121 0;
#X connect 3 0 1 0;
#X connect 3 1 7 0;
#X connect 3 2 9 0;
#X connect 3 3 11 0;
#X connect 3 4 13 0;
#X connect 4 0 15 0;
#X connect 6 0 18 0;
#X connect 7 0 8 0;
#X connect 8 0 18 0;
#X connect 9 0 10 0;
#X connect 10 0 18 0;
#X connect 11 0 12 0;
#X connect 12 0 18 0;
#X connect 13 0 14 0;
#X connect 14 0 18 0;
#X connect 15 0 2 0;
#X connect 15 1 3 0;
#X connect 16 0 17 0;
#X connect 17 0 6 0;
#X connect 17 1 8 0;
#X connect 17 2 10 0;
#X connect 17 3 12 0;
#X connect 17 4 14 0;
#X connect 19 0 22 0;
#X connect 20 0 21 1;
#X connect 21 0 19 0;
#X connect 21 1 23 0;
#X connect 21 2 25 0;
#X connect 21 3 27 0;
#X connect 21 4 29 0;
#X connect 22 0 34 0;
#X connect 23 0 24 0;
#X connect 24 0 34 0;
#X connect 25 0 26 0;
#X connect 26 0 34 0;
#X connect 27 0 28 0;
#X connect 28 0 34 0;
#X connect 29 0 30 0;
#X connect 30 0 34 0;
#X connect 31 0 20 0;
#X connect 31 1 21 0;
#X connect 32 0 33 0;
#X connect 33 0 22 0;
#X connect 33 1 24 0;
#X connect 33 2 26 0;
#X connect 33 3 28 0;
#X connect 33 4 30 0;
#X connect 35 0 38 0;
#X connect 36 0 37 1;
#X connect 37 0 35 0;
#X connect 37 1 39 0;
#X connect 37 2 41 0;
#X connect 37 3 43 0;
#X connect 37 4 45 0;
#X connect 38 0 50 0;
#X connect 39 0 40 0;
#X connect 40 0 50 0;
#X connect 41 0 42 0;
#X connect 42 0 50 0;
#X connect 43 0 44 0;
#X connect 44 0 50 0;
#X connect 45 0 46 0;
#X connect 46 0 50 0;
#X connect 47 0 36 0;
#X connect 47 1 37 0;
#X connect 48 0 49 0;
#X connect 49 0 38 0;
#X connect 49 1 40 0;
#X connect 49 2 42 0;
#X connect 49 3 44 0;
#X connect 49 4 46 0;
#X connect 51 0 54 0;
#X connect 52 0 53 1;
#X connect 52 0 128 0;
#X connect 53 0 51 0;
#X connect 53 1 55 0;
#X connect 53 2 57 0;
#X connect 53 3 59 0;
#X connect 53 4 61 0;
#X connect 54 0 98 0;
#X connect 55 0 56 0;
#X connect 56 0 98 0;
#X connect 57 0 58 0;
#X connect 58 0 98 0;
#X connect 59 0 60 0;
#X connect 60 0 98 0;
#X connect 61 0 62 0;
#X connect 62 0 98 0;
#X connect 63 0 52 0;
#X connect 63 1 53 0;
#X connect 64 0 65 0;
#X connect 65 0 54 0;
#X connect 65 1 56 0;
#X connect 65 2 58 0;
#X connect 65 3 60 0;
#X connect 65 4 62 0;
#X connect 66 0 69 0;
#X connect 67 0 68 1;
#X connect 68 0 66 0;
#X connect 68 1 70 0;
#X connect 68 2 72 0;
#X connect 68 3 74 0;
#X connect 68 4 76 0;
#X connect 69 0 97 0;
#X connect 70 0 71 0;
#X connect 71 0 97 0;
#X connect 72 0 73 0;
#X connect 73 0 97 0;
#X connect 74 0 75 0;
#X connect 75 0 97 0;
#X connect 76 0 77 0;
#X connect 77 0 97 0;
#X connect 78 0 67 0;
#X connect 78 1 68 0;
#X connect 79 0 80 0;
#X connect 80 0 69 0;
#X connect 80 1 71 0;
#X connect 80 2 73 0;
#X connect 80 3 75 0;
#X connect 80 4 77 0;
#X connect 81 0 84 0;
#X connect 82 0 83 1;
#X connect 83 0 81 0;
#X connect 83 1 85 0;
#X connect 83 2 87 0;
#X connect 83 3 89 0;
#X connect 83 4 91 0;
#X connect 84 0 96 0;
#X connect 85 0 86 0;
#X connect 86 0 96 0;
#X connect 87 0 88 0;
#X connect 88 0 96 0;
#X connect 89 0 90 0;
#X connect 90 0 96 0;
#X connect 91 0 92 0;
#X connect 92 0 96 0;
#X connect 93 0 82 0;
#X connect 93 1 83 0;
#X connect 94 0 95 0;
#X connect 95 0 84 0;
#X connect 95 1 86 0;
#X connect 95 2 88 0;
#X connect 95 3 90 0;
#X connect 95 4 92 0;
#X connect 99 0 100 0;
#X connect 99 0 120 0;
#X connect 100 0 5 0;
#X connect 101 0 102 0;
#X connect 102 0 5 0;
#X connect 103 0 104 0;
#X connect 104 0 5 0;
#X connect 105 0 106 0;
#X connect 106 0 5 0;
#X connect 107 0 108 0;
#X connect 108 0 5 0;
#X connect 109 0 119 0;
#X connect 110 0 119 0;
#X connect 111 0 119 0;
#X connect 112 0 119 0;
#X connect 113 0 119 0;
#X connect 114 0 109 0;
#X connect 115 0 111 0;
#X connect 116 0 113 0;
#X connect 117 0 112 0;
#X connect 118 0 110 0;
#X connect 122 0 123 0;
#X connect 123 0 67 1;
#X connect 124 0 82 1;
#X connect 125 0 124 0;
#X connect 126 0 52 1;
#X connect 127 0 126 0;
#X connect 129 0 52 1;
#X connect 130 0 67 1;
#X connect 131 0 82 1;
#X connect 132 0 93 0;
#X connect 133 0 78 0;
#X connect 134 0 63 0;
#X connect 135 0 31 0;
#X connect 136 0 47 0;
#X connect 137 0 20 1;
#X connect 138 0 36 1;
#X restore 787 525 pd variablestorage;
#N canvas 0 22 450 346 panning 0;
#X obj 65 22 inlet~;
#X obj 223 24 inlet;
#X msg 223 46 bang;
#X obj 223 67 random 100;
#X obj 108 205 *~;
#X obj 123 184 line~;
#X msg 123 165 \$1 3;
#X obj 223 87 / 100;
#X obj 187 236 *~;
#X obj 202 215 line~;
#X msg 202 196 \$1 3;
#X obj 222 116 - 1;
#X obj 222 137 * -1;
#X floatatom 287 159 5 0 0 0 - - -;
#X floatatom 256 125 5 0 0 0 - - -;
#X obj 123 142 sqrt;
#X obj 202 175 sqrt;
#X obj 102 306 outlet~;
#X obj 184 305 outlet~;
#X connect 0 0 4 0;
#X connect 0 0 8 0;
#X connect 1 0 2 0;
#X connect 2 0 3 0;
#X connect 3 0 7 0;
#X connect 4 0 17 0;
#X connect 5 0 4 1;
#X connect 6 0 5 0;
#X connect 7 0 11 0;
#X connect 7 0 14 0;
#X connect 7 0 15 0;
#X connect 8 0 18 0;
#X connect 9 0 8 1;
#X connect 10 0 9 0;
#X connect 11 0 12 0;
#X connect 12 0 13 0;
#X connect 12 0 16 0;
#X connect 15 0 6 0;
#X connect 16 0 10 0;
#X restore 187 759 pd panning;
#N canvas 0 22 450 346 panning 0;
#X obj 65 22 inlet~;
#X obj 223 24 inlet;
#X msg 223 46 bang;
#X obj 223 67 random 100;
#X obj 108 205 *~;
#X obj 123 184 line~;
#X msg 123 165 \$1 3;
#X obj 223 87 / 100;
#X obj 187 236 *~;
#X obj 202 215 line~;
#X msg 202 196 \$1 3;
#X obj 222 116 - 1;
#X obj 222 137 * -1;
#X floatatom 287 159 5 0 0 0 - - -;
#X floatatom 256 125 5 0 0 0 - - -;
#X obj 123 142 sqrt;
#X obj 202 175 sqrt;
#X obj 102 306 outlet~;
#X obj 184 305 outlet~;
#X connect 0 0 4 0;
#X connect 0 0 8 0;
#X connect 1 0 2 0;
#X connect 2 0 3 0;
#X connect 3 0 7 0;
#X connect 4 0 17 0;
#X connect 5 0 4 1;
#X connect 6 0 5 0;
#X connect 7 0 11 0;
#X connect 7 0 14 0;
#X connect 7 0 15 0;
#X connect 8 0 18 0;
#X connect 9 0 8 1;
#X connect 10 0 9 0;
#X connect 11 0 12 0;
#X connect 12 0 13 0;
#X connect 12 0 16 0;
#X connect 15 0 6 0;
#X connect 16 0 10 0;
#X restore 330 771 pd panning;
#N canvas 0 22 450 346 panning 0;
#X obj 65 22 inlet~;
#X obj 223 24 inlet;
#X msg 223 46 bang;
#X obj 223 67 random 100;
#X obj 108 205 *~;
#X obj 123 184 line~;
#X msg 123 165 \$1 3;
#X obj 223 87 / 100;
#X obj 187 236 *~;
#X obj 202 215 line~;
#X msg 202 196 \$1 3;
#X obj 222 116 - 1;
#X obj 222 137 * -1;
#X floatatom 287 159 5 0 0 0 - - -;
#X floatatom 256 125 5 0 0 0 - - -;
#X obj 123 142 sqrt;
#X obj 202 175 sqrt;
#X obj 102 306 outlet~;
#X obj 184 305 outlet~;
#X connect 0 0 4 0;
#X connect 0 0 8 0;
#X connect 1 0 2 0;
#X connect 2 0 3 0;
#X connect 3 0 7 0;
#X connect 4 0 17 0;
#X connect 5 0 4 1;
#X connect 6 0 5 0;
#X connect 7 0 11 0;
#X connect 7 0 14 0;
#X connect 7 0 15 0;
#X connect 8 0 18 0;
#X connect 9 0 8 1;
#X connect 10 0 9 0;
#X connect 11 0 12 0;
#X connect 12 0 13 0;
#X connect 12 0 16 0;
#X connect 15 0 6 0;
#X connect 16 0 10 0;
#X restore 506 758 pd panning;
#X obj 330 804 dac~;
#X obj 526 800 writesf~ 2;
#X msg 635 762 start;
#X msg 690 761 stop;
#X msg 614 738 open silhouetterecording2.wav;
#X connect 0 0 1 0;
#X connect 1 0 101 1;
#X connect 2 0 1 1;
#X connect 3 0 0 0;
#X connect 3 1 2 0;
#X connect 4 0 42 0;
#X connect 4 1 5 1;
#X connect 5 0 19 0;
#X connect 5 0 100 0;
#X connect 6 0 7 0;
#X connect 7 0 102 1;
#X connect 8 0 7 1;
#X connect 9 0 6 0;
#X connect 9 1 8 0;
#X connect 10 0 43 0;
#X connect 10 1 11 1;
#X connect 11 0 16 0;
#X connect 11 0 99 0;
#X connect 12 1 28 0;
#X connect 12 1 51 0;
#X connect 12 1 126 1;
#X connect 13 1 26 0;
#X connect 13 1 50 0;
#X connect 13 1 125 1;
#X connect 14 0 3 0;
#X connect 15 0 9 0;
#X connect 16 0 15 0;
#X connect 16 1 17 0;
#X connect 17 0 15 1;
#X connect 18 0 14 1;
#X connect 19 0 14 0;
#X connect 19 1 18 0;
#X connect 20 0 62 0;
#X connect 20 0 94 0;
#X connect 20 0 95 0;
#X connect 20 0 96 0;
#X connect 20 0 106 0;
#X connect 20 0 107 0;
#X connect 20 0 108 0;
#X connect 20 1 24 0;
#X connect 21 0 25 0;
#X connect 22 0 21 0;
#X connect 23 0 20 0;
#X connect 24 0 20 0;
#X connect 25 0 23 0;
#X connect 26 0 46 0;
#X connect 26 1 84 1;
#X connect 27 0 84 0;
#X connect 28 0 47 0;
#X connect 28 1 85 1;
#X connect 29 0 85 0;
#X connect 30 0 31 0;
#X connect 31 0 103 1;
#X connect 32 0 31 1;
#X connect 33 0 30 0;
#X connect 33 1 32 0;
#X connect 34 0 44 0;
#X connect 34 1 35 1;
#X connect 35 0 38 0;
#X connect 35 0 98 0;
#X connect 36 1 40 0;
#X connect 36 1 53 0;
#X connect 36 1 127 1;
#X connect 37 0 33 0;
#X connect 38 0 37 0;
#X connect 38 1 39 0;
#X connect 39 0 37 1;
#X connect 40 0 48 0;
#X connect 40 1 86 1;
#X connect 41 0 86 0;
#X connect 42 0 5 0;
#X connect 43 0 11 0;
#X connect 44 0 35 0;
#X connect 45 0 56 0;
#X connect 46 0 27 0;
#X connect 47 0 29 0;
#X connect 48 0 41 0;
#X connect 49 0 43 1;
#X connect 50 0 4 0;
#X connect 51 0 10 0;
#X connect 52 0 44 1;
#X connect 53 0 34 0;
#X connect 54 0 57 0;
#X connect 55 0 56 1;
#X connect 56 0 94 0;
#X connect 56 0 95 0;
#X connect 56 0 96 0;
#X connect 56 0 106 0;
#X connect 56 0 107 0;
#X connect 56 0 108 0;
#X connect 56 0 128 0;
#X connect 56 0 128 1;
#X connect 57 0 55 0;
#X connect 59 0 18 1;
#X connect 59 0 17 1;
#X connect 59 0 39 1;
#X connect 59 0 61 0;
#X connect 61 0 60 0;
#X connect 62 0 128 0;
#X connect 62 0 128 1;
#X connect 63 0 125 0;
#X connect 64 0 126 0;
#X connect 65 0 127 0;
#X connect 66 0 65 1;
#X connect 66 0 64 1;
#X connect 66 0 63 1;
#X connect 67 0 71 0;
#X connect 68 0 93 0;
#X connect 69 0 62 1;
#X connect 70 0 66 0;
#X connect 71 0 69 0;
#X connect 72 0 73 0;
#X connect 73 0 75 0;
#X connect 73 0 78 0;
#X connect 73 0 79 0;
#X connect 73 0 97 0;
#X connect 73 0 119 0;
#X connect 75 0 74 0;
#X connect 78 0 76 0;
#X connect 79 0 77 0;
#X connect 80 0 42 1;
#X connect 81 0 101 0;
#X connect 82 0 102 0;
#X connect 83 0 103 0;
#X connect 84 0 49 0;
#X connect 85 0 52 0;
#X connect 86 0 80 0;
#X connect 90 0 50 1;
#X connect 90 0 49 1;
#X connect 90 0 109 0;
#X connect 91 0 51 1;
#X connect 91 0 52 1;
#X connect 91 0 110 0;
#X connect 92 0 53 1;
#X connect 92 0 80 1;
#X connect 92 0 111 0;
#X connect 93 0 70 0;
#X connect 101 0 63 0;
#X connect 102 0 64 0;
#X connect 103 0 65 0;
#X connect 104 0 73 0;
#X connect 105 0 73 0;
#X connect 106 0 13 0;
#X connect 107 0 12 0;
#X connect 108 0 36 0;
#X connect 109 0 81 0;
#X connect 110 0 82 0;
#X connect 111 0 83 0;
#X connect 112 0 113 0;
#X connect 113 0 109 0;
#X connect 113 1 109 1;
#X connect 114 0 115 0;
#X connect 115 0 110 0;
#X connect 115 1 110 1;
#X connect 116 0 117 0;
#X connect 117 0 111 0;
#X connect 117 1 111 1;
#X connect 119 0 118 0;
#X connect 120 0 105 0;
#X connect 122 0 123 0;
#X connect 123 0 121 0;
#X connect 125 0 128 0;
#X connect 125 0 129 0;
#X connect 125 1 128 1;
#X connect 125 1 129 1;
#X connect 126 0 128 0;
#X connect 126 0 129 0;
#X connect 126 1 128 1;
#X connect 126 1 129 1;
#X connect 127 0 128 0;
#X connect 127 0 129 0;
#X connect 127 1 128 1;
#X connect 127 1 129 1;
#X connect 130 0 129 0;
#X connect 131 0 129 0;
#X connect 132 0 129 0;
#X restore 227 178 pd internal;
#X obj 66 49 tgl 40 0 mic.on mic.on.r input_on 44 20 0 14 -4034 -13381
-13381 1 1;
#X obj 64 94 mknob 44 0 0 2500 0 0 portamento portamento.r portamento
48 11 192 14 -13381 -4034 -13381 184 1;
#X obj 113 117 nbx 5 14 -1e+37 1e+37 0 0 portamento portamento.r empty
0 -8 0 10 -4034 -13381 -1 17.1004 256;
#X obj 64 143 mknob 44 0 0 1 0 0 processedvolume processedvolume.r
processed 48 22 192 14 -13381 -4034 -13381 26900 1;
#X obj 64 192 mknob 44 0 0 1 0 0 inputvolume inputvolume.r input_level
48 22 192 14 -13381 -4034 -13381 26900 1;
#X obj 118 247 cnv 15 100 60 empty empty channel_delays 0 8 0 14 -204786
-13381 0;
#X obj 187 278 mknob 38 0 50 2500 0 0 delayleft delayleft.r left 40
18 192 14 -13381 -4034 -13381 5910 1;
#X obj 129 290 nbx 5 14 50 1e+37 0 0 delayleft delayleft.r empty 0
-8 0 10 -4034 -13381 -1 588.235 256;
#X obj 187 320 mknob 38 0 50 2500 0 0 delaymiddle delaymiddle.r middle
40 18 192 14 -13381 -4034 -13381 2680 1;
#X obj 129 332 nbx 5 14 50 1e+37 0 0 delaymiddle delaymiddle.r empty
0 -8 0 10 -4034 -13381 -1 294.118 256;
#X obj 187 362 mknob 38 0 50 2500 0 0 delayright delayright.r right
40 18 192 14 -13381 -4034 -13381 12368 1;
#X obj 129 374 nbx 5 14 50 1e+37 0 0 delayright delayright.r empty
0 -8 0 10 -4034 -13381 -1 1176.47 256;
#X obj 78 290 nbx 4 14 0 1e+37 0 0 bpmleft bpmleft.r empty 0 -8 0 10
-4034 -13381 -1 102 256;
#X obj 78 332 nbx 4 14 0 1e+37 0 0 bpmmiddle bpmmiddle.r empty 0 -8
0 10 -4034 -13381 -1 204 256;
#X obj 78 374 nbx 4 14 0 1e+37 0 0 bpmright bpmright.r empty 0 -8 0
10 -4034 -13381 -1 51 256;
#X obj 127 273 cnv 15 44 10 empty empty msecs 0 8 0 12 -204786 -13381
0;
#X obj 78 273 cnv 15 44 10 empty empty bpm 0 8 0 12 -204786 -13381
0;
#X obj 236 81 bng 12 250 50 0 storein1 empty 1 3 6 0 12 -258113 -261234
-262144;
#X obj 236 94 bng 12 250 50 0 storein2 empty 2 3 6 0 12 -258113 -261234
-262144;
#X obj 236 107 bng 12 250 50 0 storein3 empty 3 3 6 0 12 -258113 -261234
-262144;
#X obj 236 120 bng 12 250 50 0 storein4 empty 4 3 6 0 12 -258113 -261234
-262144;
#X obj 236 133 bng 12 250 50 0 storein5 empty 5 3 6 0 12 -258113 -261234
-262144;
#X obj 275 81 bng 12 250 50 0 getfrom1 empty 1 3 6 0 12 -4160 -204800
-262144;
#X obj 275 94 bng 12 250 50 0 getfrom2 empty 2 3 6 0 12 -4160 -204800
-262144;
#X obj 275 107 bng 12 250 50 0 getfrom3 empty 3 3 6 0 12 -4160 -204800
-262144;
#X obj 275 120 bng 12 250 50 0 getfrom4 empty 4 3 6 0 12 -4160 -204800
-262144;
#X obj 275 133 bng 12 250 50 0 getfrom5 empty 5 3 6 0 12 -4160 -204800
-262144;
#X obj 263 64 cnv 15 44 10 empty empty recall 0 8 0 12 -204786 -13381
0;
#X obj 224 64 cnv 15 12 10 empty empty store 0 8 0 12 -204786 -13381
0;
#X text 291 103 <-IS;
