#N canvas 250 5 527 335 10;
#X obj 4 4 cnv 15 480 254 empty empty empty 20 12 0 14 -1 -66577 0
;
#X obj 26 22 cnv 15 436 215 empty empty empty 20 12 0 14 -99865 -66577
0;
#X obj 203 6 cnv 15 100 10 empty empty Mixed_Signals 2 6 0 10 -1 -262144
0;
#X obj 34 135 hsl 288 30 0 120 0 0 boost boost-r input:0dB 4 14 0 18
-33289 -228856 -262144 23917 0;
#X obj 34 169 hsl 288 30 0 120 0 0 dry dry-r dry:-22dB 2 14 0 18 -33289
-228856 -262144 18700 0;
#X obj 334 203 bng 14 70 50 0 empty clipLED clipping 18 7 0 10 -45189
-258185 -262144;
#N canvas 391 90 1184 843 internal 1;
#X msg 140 119 0;
#X obj 243 798 dac~;
#X obj 149 76 bng 15 250 50 0 empty empty empty 17 7 0 10 -262144 -1
-1;
#X obj 160 47 bng 15 250 50 0 empty empty empty 17 7 0 10 -262144 -1
-1;
#N canvas 377 40 1138 873 randomize 0;
#X obj 313 536 f 74;
#X obj 337 514 f 74;
#X obj 361 491 f 74;
#X obj 385 468 f 74;
#X obj 409 445 f 74;
#X obj 394 752 f;
#X obj 370 752 f;
#X obj 346 752 f;
#X obj 322 752 f;
#X obj 298 752 f;
#X obj 115 5 inlet;
#X obj 330 806 outlet;
#X obj 330 784 f;
#X obj 560 371 inlet;
#X obj 339 400 t f b b b b b b b b b b;
#X obj 214 627 f 74;
#X obj 238 605 f 74;
#X obj 262 582 f 74;
#X obj 286 559 f 74;
#X obj 271 753 f;
#X obj 247 753 f;
#X obj 223 753 f;
#X obj 199 649 f;
#X obj 298 672 select 0 1 2 3 4 5 6 7 8;
#X obj 338 359 select 0;
#X obj 269 275 t b f;
#X obj 339 380 f;
#X obj 280 5 inlet;
#X obj 515 209 / 2;
#X obj 447 184 * 0.618;
#X msg 650 73 clear;
#X obj 639 3 r onoff;
#X obj 639 46 t b b;
#X obj 474 485 random 5;
#X obj 474 506 select 0;
#X obj 269 301 random 5;
#X obj 540 302 random 7;
#X floatatom 340 30 12 0 0 0 - - -;
#X obj 336 252 t b f b;
#X obj 396 258 t b f b;
#X obj 470 276 t b f b;
#X obj 540 276 t b f b;
#X obj 610 276 t b f b;
#X obj 474 555 + 3;
#X obj 474 534 random 5;
#X obj 340 296 random 4;
#X obj 647 532 * 2;
#X obj 626 470 f;
#X obj 626 580 del;
#X obj 626 491 t f b;
#X obj 626 554 *;
#X obj 626 451 spigot 1;
#X msg 684 429 0;
#X msg 654 429 1;
#X obj 849 538 * 2;
#X obj 828 476 f;
#X obj 828 586 del;
#X obj 828 497 t f b;
#X obj 828 560 *;
#X obj 828 457 spigot 1;
#X msg 886 435 0;
#X msg 856 435 1;
#X obj 600 353 r reset;
#X msg 560 393 130;
#X obj 849 517 random 7;
#X obj 647 511 random 7;
#X obj 610 302 random 9;
#X obj 470 302 random 11;
#X obj 298 641 random 8;
#X obj 381 190 * 3;
#X obj 585 209 * 5;
#X obj 655 209 * 6;
#X obj 398 803 bng 15 50 50 0 empty empty empty 17 7 0 10 -1 -257985
-1;
#X obj 679 49 s reset;
#X obj 639 25 sel 0 1;
#X obj 753 538 * 2;
#X obj 732 476 f;
#X obj 732 586 del;
#X obj 732 497 t f b;
#X obj 732 560 *;
#X obj 732 457 spigot 1;
#X msg 790 435 0;
#X msg 760 435 1;
#X obj 753 517 random 7;
#X obj 937 538 * 2;
#X obj 916 476 f;
#X obj 916 586 del;
#X obj 916 497 t f b;
#X obj 916 560 *;
#X obj 916 457 spigot 1;
#X msg 974 435 0;
#X msg 944 435 1;
#X obj 937 517 random 7;
#X obj 540 235 poipe 700;
#X obj 610 235 poipe 700;
#X obj 470 235 poipe 700;
#X obj 396 233 poipe 1000;
#X obj 336 210 poipe 500;
#X connect 0 0 9 1;
#X connect 1 0 0 1;
#X connect 1 0 8 1;
#X connect 2 0 1 1;
#X connect 2 0 7 1;
#X connect 3 0 2 1;
#X connect 3 0 6 1;
#X connect 4 0 3 1;
#X connect 4 0 5 1;
#X connect 5 0 12 0;
#X connect 6 0 12 0;
#X connect 7 0 12 0;
#X connect 8 0 12 0;
#X connect 9 0 12 0;
#X connect 10 0 25 0;
#X connect 10 0 94 0;
#X connect 10 0 93 0;
#X connect 10 0 95 0;
#X connect 10 0 96 0;
#X connect 10 0 97 0;
#X connect 12 0 11 0;
#X connect 12 0 72 0;
#X connect 13 0 63 0;
#X connect 14 0 4 1;
#X connect 14 1 4 0;
#X connect 14 1 68 0;
#X connect 14 2 3 0;
#X connect 14 3 2 0;
#X connect 14 4 1 0;
#X connect 14 5 0 0;
#X connect 14 6 18 0;
#X connect 14 7 17 0;
#X connect 14 8 16 0;
#X connect 14 9 15 0;
#X connect 14 10 33 0;
#X connect 14 10 51 0;
#X connect 14 10 59 0;
#X connect 14 10 89 0;
#X connect 15 0 22 1;
#X connect 16 0 15 1;
#X connect 16 0 21 1;
#X connect 17 0 16 1;
#X connect 17 0 20 1;
#X connect 18 0 17 1;
#X connect 18 0 19 1;
#X connect 19 0 12 0;
#X connect 20 0 12 0;
#X connect 21 0 12 0;
#X connect 22 0 12 0;
#X connect 23 0 9 0;
#X connect 23 1 8 0;
#X connect 23 2 7 0;
#X connect 23 3 6 0;
#X connect 23 4 5 0;
#X connect 23 5 22 0;
#X connect 23 6 21 0;
#X connect 23 7 20 0;
#X connect 23 8 19 0;
#X connect 24 0 26 0;
#X connect 25 0 35 0;
#X connect 25 1 26 1;
#X connect 26 0 14 0;
#X connect 27 0 37 0;
#X connect 27 0 29 0;
#X connect 27 0 28 0;
#X connect 27 0 47 1;
#X connect 27 0 55 1;
#X connect 27 0 69 0;
#X connect 27 0 70 0;
#X connect 27 0 71 0;
#X connect 28 0 95 1;
#X connect 29 0 96 1;
#X connect 30 0 94 0;
#X connect 30 0 93 0;
#X connect 30 0 95 0;
#X connect 30 0 96 0;
#X connect 30 0 97 0;
#X connect 31 0 74 0;
#X connect 32 0 63 0;
#X connect 32 1 30 0;
#X connect 33 0 34 0;
#X connect 34 0 44 0;
#X connect 35 0 24 0;
#X connect 36 0 24 0;
#X connect 38 0 45 0;
#X connect 38 1 26 1;
#X connect 39 0 45 0;
#X connect 39 1 26 1;
#X connect 40 0 67 0;
#X connect 40 1 26 1;
#X connect 41 0 36 0;
#X connect 41 1 26 1;
#X connect 42 0 66 0;
#X connect 42 1 26 1;
#X connect 43 0 68 1;
#X connect 44 0 43 0;
#X connect 45 0 24 0;
#X connect 46 0 50 1;
#X connect 47 0 49 0;
#X connect 48 0 53 0;
#X connect 48 0 68 0;
#X connect 48 0 80 0;
#X connect 49 0 50 0;
#X connect 49 1 52 0;
#X connect 49 1 65 0;
#X connect 50 0 48 0;
#X connect 51 0 47 0;
#X connect 52 0 51 1;
#X connect 53 0 51 1;
#X connect 54 0 58 1;
#X connect 55 0 57 0;
#X connect 56 0 61 0;
#X connect 56 0 68 0;
#X connect 57 0 58 0;
#X connect 57 1 60 0;
#X connect 57 1 64 0;
#X connect 58 0 56 0;
#X connect 59 0 55 0;
#X connect 60 0 59 1;
#X connect 61 0 59 1;
#X connect 63 0 4 1;
#X connect 63 0 3 1;
#X connect 63 0 2 1;
#X connect 63 0 1 1;
#X connect 63 0 0 1;
#X connect 63 0 18 1;
#X connect 63 0 17 1;
#X connect 63 0 16 1;
#X connect 63 0 15 1;
#X connect 64 0 54 0;
#X connect 65 0 46 0;
#X connect 66 0 24 0;
#X connect 67 0 24 0;
#X connect 68 0 23 0;
#X connect 69 0 97 1;
#X connect 70 0 93 1;
#X connect 71 0 94 1;
#X connect 74 0 32 0;
#X connect 74 1 73 0;
#X connect 75 0 79 1;
#X connect 76 0 78 0;
#X connect 77 0 82 0;
#X connect 77 0 68 0;
#X connect 78 0 79 0;
#X connect 78 1 81 0;
#X connect 78 1 83 0;
#X connect 79 0 77 0;
#X connect 80 0 76 0;
#X connect 81 0 80 1;
#X connect 82 0 80 1;
#X connect 83 0 75 0;
#X connect 84 0 88 1;
#X connect 85 0 87 0;
#X connect 86 0 91 0;
#X connect 86 0 68 0;
#X connect 87 0 88 0;
#X connect 87 1 90 0;
#X connect 87 1 92 0;
#X connect 88 0 86 0;
#X connect 89 0 85 0;
#X connect 90 0 89 1;
#X connect 91 0 89 1;
#X connect 92 0 84 0;
#X connect 93 0 41 0;
#X connect 94 0 42 0;
#X connect 95 0 40 0;
#X connect 96 0 39 0;
#X connect 97 0 38 0;
#X restore 285 499 pd randomize note order;
#N canvas 686 50 710 479 loadsoundfiles 0;
#X obj 213 346 soundfiler;
#X floatatom 213 376 8 0 0 0 - - -;
#X obj 144 95 inlet;
#X msg 66 152 read -resize samples/C1-441.wav C1 \;;
#X msg 66 193 read -resize samples/C3-441.wav C3 \;;
#X msg 66 234 read -resize samples/C5-441.wav C5 \;;
#X msg 66 171 read -resize samples/C2-441.wav C2 \;;
#X msg 66 212 read -resize samples/C4-441.wav C4 \;;
#X msg 66 254 read -resize samples/C6-441.wav C6 \;;
#X msg 305 212 read -resize samples/C4-short.wav C4alt \;;
#X msg 305 234 read -resize samples/C5-short.wav C5alt \;;
#X msg 306 193 read -resize samples/C3-short.wav C3alt \;;
#X msg 306 172 read -resize samples/C2-short.wav C2alt \;;
#X msg 306 152 read -resize samples/C1-short.wav C1alt \;;
#X msg 305 254 read -resize samples/C6-short.wav C6alt \;;
#X connect 0 0 1 0;
#X connect 2 0 3 0;
#X connect 2 0 4 0;
#X connect 2 0 5 0;
#X connect 2 0 6 0;
#X connect 2 0 7 0;
#X connect 2 0 8 0;
#X connect 2 0 10 0;
#X connect 2 0 9 0;
#X connect 2 0 13 0;
#X connect 2 0 12 0;
#X connect 2 0 11 0;
#X connect 2 0 14 0;
#X connect 3 0 0 0;
#X connect 4 0 0 0;
#X connect 5 0 0 0;
#X connect 6 0 0 0;
#X connect 7 0 0 0;
#X connect 8 0 0 0;
#X connect 9 0 0 0;
#X connect 10 0 0 0;
#X connect 11 0 0 0;
#X connect 12 0 0 0;
#X connect 13 0 0 0;
#X connect 14 0 0 0;
#X restore 538 235 pd loadsoundfiles;
#X obj 538 212 bng 15 250 50 0 empty empty empty 17 7 0 10 -262144
-1 -1;
#X obj 285 594 *~;
#X obj 300 573 line~;
#X msg 374 400 \$1 1400;
#N canvas 721 44 806 704 piano_sound 0;
#X obj 36 20 inlet;
#X obj 565 97 table C4;
#X obj 565 77 table C3;
#X obj 565 57 table C2;
#X obj 565 37 table C1;
#X obj 565 117 table C5;
#X obj 565 137 table C6;
#X obj 360 663 outlet~;
#X obj 21 231 f;
#X obj 21 296 f;
#X msg 21 209 bang;
#X msg 21 273 bang;
#X obj 425 664 outlet~;
#X msg 265 216 bang;
#X obj 265 238 f;
#X msg 214 86 0;
#X obj 214 36 loadbang;
#X obj 214 58 del 15;
#X obj 623 117 table C5alt;
#X obj 623 77 table C3alt;
#X obj 623 97 table C4alt;
#X obj 21 185 pianovoice 1;
#X obj 265 259 pianovoice 6;
#X msg 265 285 bang;
#X msg 142 213 bang;
#X obj 142 235 f;
#X msg 142 277 bang;
#X msg 23 340 bang;
#X obj 142 189 pianovoice 2;
#X obj 265 195 pianovoice 3;
#X obj 21 253 pianovoice 4;
#X obj 142 255 pianovoice 5;
#X obj 24 318 pianovoice 7;
#X obj 332 585 catch~ voicesleft;
#X obj 432 623 catch~ voicesright;
#X obj 623 37 table C1alt;
#X obj 623 57 table C2alt;
#X obj 623 137 table C6alt;
#X obj 150 463 s dur_prob;
#X obj 36 41 t f f b;
#X obj 150 377 random 25;
#X obj 150 398 + 40;
#X floatatom 168 423 5 0 0 0 - - -;
#X obj 151 321 random 20;
#X obj 151 342 select 3;
#X obj 511 323 tabplay~;
#X msg 526 258 set \$1 \, bang;
#X obj 511 344 dac~;
#X symbolatom 532 214 10 0 0 0 - - -;
#X obj 541 288 print;
#X msg 494 287 bang;
#X connect 0 0 39 0;
#X connect 8 0 30 0;
#X connect 9 0 32 0;
#X connect 10 0 8 0;
#X connect 11 0 9 0;
#X connect 13 0 14 0;
#X connect 14 0 22 0;
#X connect 15 0 21 1;
#X connect 15 0 30 1;
#X connect 15 0 22 1;
#X connect 15 0 28 1;
#X connect 15 0 29 1;
#X connect 15 0 31 1;
#X connect 15 0 32 1;
#X connect 16 0 17 0;
#X connect 17 0 15 0;
#X connect 21 0 10 0;
#X connect 22 0 23 0;
#X connect 24 0 25 0;
#X connect 25 0 31 0;
#X connect 28 0 24 0;
#X connect 29 0 13 0;
#X connect 30 0 11 0;
#X connect 31 0 26 0;
#X connect 32 0 27 0;
#X connect 33 0 7 0;
#X connect 34 0 12 0;
#X connect 39 0 21 0;
#X connect 39 0 28 0;
#X connect 39 0 29 0;
#X connect 39 1 8 1;
#X connect 39 1 9 1;
#X connect 39 1 14 1;
#X connect 39 1 25 1;
#X connect 39 2 43 0;
#X connect 40 0 41 0;
#X connect 41 0 38 0;
#X connect 41 0 42 0;
#X connect 43 0 44 0;
#X connect 44 0 40 0;
#X connect 45 0 47 0;
#X connect 45 0 47 1;
#X connect 46 0 45 0;
#X connect 46 0 49 0;
#X connect 48 0 46 0;
#X connect 50 0 45 0;
#X restore 285 526 pd piano_sound;
#X obj 560 210 loadbang;
#X msg 150 98 open Mixed_Signals-441.wav \, 1;
#X obj 366 594 *~;
#X obj 409 566 line~;
#X obj 285 619 *~ 3;
#X obj 366 619 *~ 3;
#X obj 566 279 s reset;
#X obj 545 254 bng 15 250 50 0 empty empty empty 17 7 0 10 -262144
-1 -1;
#X obj 205 206 *~;
#X obj 68 142 line~;
#X msg 68 121 \$1 10;
#X obj 68 78 r boost;
#X obj 68 100 dbtorms;
#X obj 462 418 line~;
#X msg 462 397 \$1 10;
#X obj 462 376 dbtorms;
#X obj 462 324 r output;
#X obj 322 648 *~;
#X obj 284 647 *~;
#N canvas 962 605 454 369 vuout 0;
#X obj 53 25 inlet~;
#X obj 148 27 inlet~;
#X obj 165 194 s clipLED;
#X obj 175 77 env~ 64;
#X obj 265 69 env~ 64;
#X obj 113 122 moses 100;
#X msg 172 144 bang;
#X connect 0 0 3 0;
#X connect 1 0 4 0;
#X connect 3 0 5 0;
#X connect 4 0 5 0;
#X connect 5 1 6 0;
#X connect 6 0 2 0;
#X restore 301 795 pd vuout;
#X obj 133 4 r demo;
#X obj 133 26 sel 1 0;
#X obj 194 27 adc~ 1;
#X obj 194 49 *~;
#X msg 376 59 \$1 10;
#X obj 326 64 line~;
#X obj 167 206 *~;
#X obj 143 281 s~ inputsignal;
#X obj 150 146 readsf~;
#N canvas 594 3 947 629 scorefollowing 0;
#X obj 62 64 inlet~;
#X obj 212 430 t b b;
#X obj 195 461 timer;
#X obj 290 465 dbtorms;
#X obj 115 327 s threshExceed;
#X obj 21 533 outlet note;
#X obj 195 556 outlet timer;
#X obj 290 499 outlet loudness;
#X obj 62 211 int;
#X obj 62 253 t f b;
#X obj 266 117 r start-mixed;
#X obj 277 298 f 30;
#X obj 62 189 + 0.5;
#X floatatom 127 200 5 0 0 0 - - -;
#X obj 195 486 min 3000;
#X obj 293 248 max 60;
#X obj 62 162 sigmund~ -npts 512 -hop 4096 notes env;
#X connect 0 0 16 0;
#X connect 1 0 2 0;
#X connect 1 1 2 1;
#X connect 2 0 14 0;
#X connect 3 0 7 0;
#X connect 8 0 9 0;
#X connect 9 0 5 0;
#X connect 9 1 1 0;
#X connect 9 1 4 0;
#X connect 9 1 11 0;
#X connect 10 0 1 0;
#X connect 11 0 3 0;
#X connect 12 0 8 0;
#X connect 14 0 6 0;
#X connect 15 0 11 1;
#X connect 16 0 12 0;
#X connect 16 0 13 0;
#X connect 16 1 15 0;
#X restore 285 281 pd scorefollowing;
#X obj 219 130 s startmessage;
#X obj 224 527 *~ 0.5;
#N canvas 1059 479 407 481 initialize 0;
#X obj 15 122 s boost-r;
#X obj 91 146 s output-r;
#X obj 65 239 s mic-r;
#X msg 37 318 1;
#X obj 37 338 s m1;
#X obj 282 49 del 15;
#X obj 282 29 loadbang;
#X msg 65 214 0;
#X msg 310 87 \; pd dsp 1;
#X msg 15 102 100;
#X msg 135 125 100;
#X connect 3 0 4 0;
#X connect 5 0 9 0;
#X connect 5 0 10 0;
#X connect 5 0 7 0;
#X connect 5 0 3 0;
#X connect 5 0 8 0;
#X connect 6 0 5 0;
#X connect 7 0 2 0;
#X connect 9 0 0 0;
#X connect 10 0 1 0;
#X restore 9 334 pd initialize;
#N canvas 78 219 454 369 vuin 0;
#X obj 53 25 inlet~;
#X obj 148 27 inlet~;
#X obj 192 199 s clipinLED;
#X obj 139 104 moses 100;
#X msg 186 133 bang;
#X obj 135 78 env~ 512;
#X connect 0 0 5 0;
#X connect 1 0 5 0;
#X connect 3 1 4 0;
#X connect 4 0 2 0;
#X connect 5 0 3 0;
#X restore 123 308 pd vuin;
#X obj 376 21 r onoff;
#X msg 12 180 label input:\$1dB;
#X obj 12 202 s boost-r;
#X obj 12 158 - 100;
#X obj 482 468 - 100;
#X msg 482 490 label output:\$1dB;
#X obj 482 512 s output-r;
#X obj 482 448 int;
#X obj 12 136 int;
#N canvas 941 119 599 587 autolimit 0;
#X obj 48 21 inlet~;
#X obj 146 22 inlet~;
#X obj 105 139 - 100;
#X obj 82 101 moses 100;
#X msg 105 360 \$2 \, \$1 400;
#X obj 216 35 r output;
#X obj 91 452 s output-r;
#X obj 105 293 int;
#X obj 105 326 pack f 100;
#X obj 105 405 line 100 66.6666;
#X obj 146 43 env~ 32;
#X obj 48 43 env~ 32;
#X obj 105 160 pack f f;
#X msg 105 181 \$2 \$1;
#X obj 105 232 -;
#X obj 105 202 unpack;
#X obj 105 253 - 1.5;
#X connect 0 0 11 0;
#X connect 1 0 10 0;
#X connect 2 0 12 0;
#X connect 3 1 2 0;
#X connect 4 0 9 0;
#X connect 5 0 8 1;
#X connect 5 0 12 1;
#X connect 7 0 8 0;
#X connect 8 0 4 0;
#X connect 9 0 6 0;
#X connect 10 0 3 0;
#X connect 11 0 3 0;
#X connect 12 0 13 0;
#X connect 13 0 15 0;
#X connect 14 0 16 0;
#X connect 15 0 14 0;
#X connect 15 1 14 1;
#X connect 16 0 7 0;
#X restore 315 695 pd autolimit;
#X obj 244 721 clip~ -1 1;
#X obj 269 745 clip~ -1 1;
#X obj 315 328 t f f f;
#X msg 314 400 \$1 300;
#X obj 314 371 moses 100;
#X obj 205 773 dac~ 3 4;
#X floatatom 269 332 5 0 0 0 - - -;
#X obj 92 580 *~;
#X obj 124 426 r dry;
#X obj 132 465 - 100;
#X obj 132 445 int;
#X obj 132 509 s dry-r;
#X msg 132 487 label dry:\$1dB;
#X obj 83 507 line~;
#X msg 83 486 \$1 10;
#X obj 83 465 dbtorms;
#X obj 182 421 loadbang;
#X msg 182 442 0;
#X obj 730 139 cputime;
#X obj 730 -1 loadbang;
#X obj 730 83 metro 1000;
#X msg 730 27 1;
#X floatatom 730 55 0 0 0 0 - - -;
#X obj 730 111 t b b;
#X obj 730 199 * 0.1;
#X obj 730 168 int;
#X obj 730 300 s load;
#X obj 730 220 makefilename %s;
#X msg 730 241 label \$1;
#X obj 789 266 s cpuload;
#X connect 0 0 39 0;
#X connect 2 0 4 2;
#X connect 2 0 12 0;
#X connect 3 0 0 0;
#X connect 3 0 41 0;
#X connect 4 0 10 0;
#X connect 6 0 5 0;
#X connect 7 0 15 0;
#X connect 8 0 7 1;
#X connect 9 0 8 0;
#X connect 9 0 14 0;
#X connect 10 0 7 0;
#X connect 10 1 13 0;
#X connect 11 0 5 0;
#X connect 11 0 17 0;
#X connect 12 0 39 0;
#X connect 13 0 16 0;
#X connect 14 0 13 1;
#X connect 15 0 29 0;
#X connect 16 0 28 0;
#X connect 18 0 17 0;
#X connect 19 0 38 0;
#X connect 19 0 40 0;
#X connect 19 0 44 1;
#X connect 19 0 42 0;
#X connect 20 0 19 0;
#X connect 20 0 37 0;
#X connect 21 0 20 0;
#X connect 22 0 23 0;
#X connect 22 0 53 0;
#X connect 23 0 21 0;
#X connect 24 0 29 1;
#X connect 24 0 28 1;
#X connect 25 0 24 0;
#X connect 26 0 25 0;
#X connect 27 0 26 0;
#X connect 27 0 52 0;
#X connect 28 0 30 1;
#X connect 28 0 54 1;
#X connect 28 0 56 0;
#X connect 29 0 30 0;
#X connect 29 0 54 0;
#X connect 29 0 55 0;
#X connect 31 0 32 0;
#X connect 32 0 2 0;
#X connect 32 1 3 0;
#X connect 33 0 34 0;
#X connect 34 0 37 1;
#X connect 35 0 36 0;
#X connect 36 0 34 1;
#X connect 37 0 38 0;
#X connect 37 0 40 0;
#X connect 37 0 44 0;
#X connect 37 0 62 0;
#X connect 39 0 19 1;
#X connect 40 0 4 0;
#X connect 40 0 61 0;
#X connect 40 1 4 1;
#X connect 40 2 57 0;
#X connect 42 0 62 0;
#X connect 45 0 35 0;
#X connect 46 0 47 0;
#X connect 48 0 46 0;
#X connect 49 0 50 0;
#X connect 50 0 51 0;
#X connect 52 0 49 0;
#X connect 53 0 48 0;
#X connect 55 0 60 0;
#X connect 55 0 1 0;
#X connect 56 0 60 1;
#X connect 56 0 1 1;
#X connect 57 0 59 1;
#X connect 57 1 59 0;
#X connect 58 0 8 0;
#X connect 58 0 14 0;
#X connect 59 0 58 0;
#X connect 59 1 9 0;
#X connect 62 0 29 0;
#X connect 62 0 28 0;
#X connect 63 0 65 0;
#X connect 63 0 70 0;
#X connect 64 0 67 0;
#X connect 65 0 64 0;
#X connect 67 0 66 0;
#X connect 68 0 62 1;
#X connect 69 0 68 0;
#X connect 70 0 69 0;
#X connect 71 0 72 0;
#X connect 72 0 66 0;
#X connect 73 0 80 0;
#X connect 74 0 76 0;
#X connect 75 0 78 0;
#X connect 76 0 77 0;
#X connect 77 0 75 0;
#X connect 78 0 73 0;
#X connect 78 1 73 1;
#X connect 79 0 82 0;
#X connect 79 0 84 0;
#X connect 80 0 79 0;
#X connect 82 0 83 0;
#X connect 83 0 81 0;
#X restore 382 314 pd internal;
#X obj 31 26 cnv 15 401 100 empty play-indicator empty 17 50 0 40 -228856
-262144 0;
#X obj 334 135 bng 14 70 50 0 empty clipinLED clipping 18 7 0 10 -45189
-258185 -262144;
#X obj 33 28 tgl 96 0 onoff onoff-r Play_toggle 100 50 0 24 -1 -262144
-1 0 1;
#X obj 334 28 tgl 96 0 demo empty demo 20 50 0 24 -1 -228856 -262144
0 1;
#X obj 334 151 bng 14 70 50 0 threshExceed-s threshExceed note_detected
18 7 0 10 -13381 -4034 -262144;
#X obj 34 203 hsl 288 30 0 120 0 0 output output-r output:0dB 2 14
0 18 -33289 -228856 -262144 23917 0;
#X obj 428 260 cnv 15 50 20 empty load 10.9 3 12 0 14 -262144 -66577
0;
#X obj 342 261 cnv 15 50 20 empty empty computation_load 3 12 0 8 -262144
-66577 0;
