#N canvas 469 23 558 640 10;
#X obj 12 12 cnv 8 12 30 empty \$1-vu100 empty 20 12 0 14 -73729 -66577
0;
#X obj 12 43 cnv 8 12 30 empty \$1-vu94 empty 20 12 0 14 -66305 -66577
0;
#X obj 12 74 cnv 8 12 30 empty \$1-vu88 empty 20 12 0 14 -74881 -66577
0;
#X obj 12 105 cnv 8 12 30 empty \$1-vu82 empty 20 12 0 14 -961 -66577
0;
#X obj 12 136 cnv 8 12 30 empty \$1-vu76 empty 20 12 0 14 -961 -66577
0;
#X obj 12 167 cnv 8 12 30 empty \$1-vu70 empty 20 12 0 14 -961 -66577
0;
#X obj 12 198 cnv 8 12 30 empty \$1-vu64 empty 20 12 0 14 -16402 -66577
0;
#X obj 12 229 cnv 8 12 30 empty \$1-vu58 empty 20 12 0 14 -28680 -66577
0;
#X floatatom 167 64 5 0 0 0 - - -, f 5;
#X obj 100 13 r~ \$1;
#X text 29 17 100+;
#X text 31 49 94;
#X text 32 80 88;
#X text 35 113 82;
#X text 34 142 76;
#X text 36 172 70;
#X text 33 205 64;
#X text 37 232 58;
#X obj 100 98 moses 58;
#X obj 145 118 moses 64;
#X obj 190 137 moses 70;
#X obj 233 157 moses 76;
#X obj 279 176 moses 82;
#X obj 324 196 moses 88;
#X obj 369 216 moses 94;
#X obj 414 236 moses 100;
#X obj 420 551 s \$1-vu100;
#X msg 429 507 color -1.67117e+07;
#X msg 420 531 color -4.78413e+06;
#X obj 287 585 s \$1-vu94;
#X msg 287 565 color -4.33818e+06;
#X msg 296 541 color -1.41233e+07;
#X obj 162 601 s \$1-vu88;
#X msg 162 581 color -4.80282e+06;
#X msg 171 557 color -1.1711e+07;
#X obj 137 521 s \$1-vu82;
#X msg 137 501 color -15361;
#X msg 167 480 color -36609;
#X msg 377 392 color -15361;
#X msg 407 371 color -36609;
#X obj 377 412 s \$1-vu76;
#X msg 272 386 color -15361;
#X msg 302 365 color -36609;
#X obj 272 406 s \$1-vu70;
#X obj 141 403 s \$1-vu64;
#X msg 141 383 color -1.17972e+06;
#X msg 171 361 color -4.06337e+06;
#X obj 39 390 s \$1-vu58;
#X msg 39 370 color -1.96611e+06;
#X msg 69 348 color -6.22602e+06;
#X obj 100 34 env~ 4096;
#X obj 100 56 pack f 15;
#X obj 100 78 line;
#X connect 9 0 50 0;
#X connect 18 0 28 0;
#X connect 18 0 30 0;
#X connect 18 0 33 0;
#X connect 18 0 36 0;
#X connect 18 0 38 0;
#X connect 18 0 41 0;
#X connect 18 0 45 0;
#X connect 18 0 48 0;
#X connect 18 1 19 0;
#X connect 19 0 28 0;
#X connect 19 0 30 0;
#X connect 19 0 33 0;
#X connect 19 0 36 0;
#X connect 19 0 38 0;
#X connect 19 0 41 0;
#X connect 19 0 45 0;
#X connect 19 0 49 0;
#X connect 19 1 20 0;
#X connect 20 0 28 0;
#X connect 20 0 30 0;
#X connect 20 0 33 0;
#X connect 20 0 36 0;
#X connect 20 0 38 0;
#X connect 20 0 41 0;
#X connect 20 0 46 0;
#X connect 20 0 49 0;
#X connect 20 1 21 0;
#X connect 21 0 28 0;
#X connect 21 0 30 0;
#X connect 21 0 33 0;
#X connect 21 0 36 0;
#X connect 21 0 38 0;
#X connect 21 0 42 0;
#X connect 21 0 46 0;
#X connect 21 0 49 0;
#X connect 21 1 22 0;
#X connect 22 0 30 0;
#X connect 22 0 33 0;
#X connect 22 0 36 0;
#X connect 22 0 39 0;
#X connect 22 0 42 0;
#X connect 22 0 46 0;
#X connect 22 0 49 0;
#X connect 22 1 23 0;
#X connect 23 0 28 0;
#X connect 23 0 30 0;
#X connect 23 0 33 0;
#X connect 23 0 37 0;
#X connect 23 0 39 0;
#X connect 23 0 42 0;
#X connect 23 0 46 0;
#X connect 23 0 49 0;
#X connect 23 1 24 0;
#X connect 24 0 28 0;
#X connect 24 0 31 0;
#X connect 24 0 34 0;
#X connect 24 0 37 0;
#X connect 24 0 39 0;
#X connect 24 0 42 0;
#X connect 24 0 46 0;
#X connect 24 0 49 0;
#X connect 24 1 25 0;
#X connect 25 0 27 0;
#X connect 25 0 31 0;
#X connect 25 0 37 0;
#X connect 25 0 39 0;
#X connect 25 0 42 0;
#X connect 25 0 46 0;
#X connect 25 0 49 0;
#X connect 27 0 26 0;
#X connect 28 0 26 0;
#X connect 30 0 29 0;
#X connect 31 0 29 0;
#X connect 33 0 32 0;
#X connect 34 0 32 0;
#X connect 36 0 35 0;
#X connect 37 0 35 0;
#X connect 38 0 40 0;
#X connect 39 0 40 0;
#X connect 41 0 43 0;
#X connect 42 0 43 0;
#X connect 45 0 44 0;
#X connect 46 0 44 0;
#X connect 48 0 47 0;
#X connect 49 0 47 0;
#X connect 50 0 8 0;
#X connect 50 0 51 0;
#X connect 51 0 52 0;
#X connect 52 0 18 0;
#X coords 0 -1 1 1 16 251 2 10 10;
