#N canvas 427 69 1153 847 10;
#X obj 55 20 inlet;
#X obj 622 773 outlet;
#X obj 70 65 random 100;
#X obj 70 150 - 1;
#X obj 55 195 +;
#X obj 233 284 moses 59;
#X obj 186 264 moses 47;
#X obj 141 244 moses 35;
#X obj 276 306 moses 71;
#X obj 320 326 moses 83;
#X obj 848 120 inlet;
#X obj 320 455 t f b;
#X obj 365 505 t f b;
#X obj 276 402 t f b;
#X obj 420 644 voice_range C1 338325 32.7032;
#X msg 347 478 symbol C5alt;
#X obj 233 346 t f b;
#X msg 260 371 symbol C3alt;
#X msg 303 423 symbol C4alt;
#X obj 70 87 / 100;
#X obj 70 109 pow 4;
#X obj 70 130 * 2;
#X obj 420 684 voice_range C3 503347 130.813;
#X obj 420 724 voice_range C5 299161 523.251;
#X obj 420 704 voice_range C4 441491 261.262;
#X obj 420 664 voice_range C2 549793 65.4064;
#X obj 420 744 voice_range C6 298201 1046.5;
#X obj 365 344 moses 120;
#X obj 610 325 osc~ 0;
#X obj 609 290 line~;
#X obj 609 269 pack f 6;
#X obj 498 233 pow 2;
#X obj 610 346 *~;
#X obj 498 293 pack f 10;
#X obj 498 314 line~;
#X obj 609 178 / 100;
#X obj 498 210 / 1000;
#X obj 539 60 random 200;
#X obj 55 43 t f b b;
#X obj 514 131 clip 0 1000;
#X obj 539 81 - 100;
#X obj 511 108 +;
#X obj 493 81 f 500;
#X obj 609 223 * 197.4;
#X obj 614 132 +;
#X obj 596 105 f 50;
#X obj 617 155 clip 0 100;
#X obj 642 84 random 24;
#X obj 642 105 - 12;
#X obj 498 272 / 26;
#X obj 609 199 pow 2.7;
#X obj 878 334 +;
#X obj 881 353 clip 0 2200;
#X obj 906 286 random 180;
#X obj 906 307 - 90;
#X obj 860 307 f 1100;
#X obj 862 235 loadbang;
#X obj 862 256 random 2200;
#X obj 614 35 loadbang;
#X obj 614 56 random 50;
#X obj 474 21 loadbang;
#X obj 474 42 random 500;
#X obj 393 802 throw~ voicesleft;
#X obj 515 795 throw~ voicesright;
#X obj 609 244 + 2.64;
#X obj 70 172 * 0.021;
#X msg 392 528 symbol C6alt;
#X obj 177 299 t f b;
#X msg 204 324 symbol C2alt;
#X obj 90 300 t f b;
#X msg 117 325 symbol C1alt;
#X connect 0 0 38 0;
#X connect 2 0 19 0;
#X connect 3 0 65 0;
#X connect 4 0 7 0;
#X connect 5 0 16 0;
#X connect 5 1 8 0;
#X connect 6 0 67 0;
#X connect 6 1 5 0;
#X connect 7 0 69 0;
#X connect 7 1 6 0;
#X connect 8 0 13 0;
#X connect 8 1 9 0;
#X connect 9 0 11 0;
#X connect 9 1 27 0;
#X connect 10 0 25 2;
#X connect 10 0 22 2;
#X connect 10 0 14 2;
#X connect 10 0 24 2;
#X connect 10 0 23 2;
#X connect 10 0 26 2;
#X connect 11 0 23 0;
#X connect 11 1 15 0;
#X connect 12 0 26 0;
#X connect 12 1 66 0;
#X connect 13 0 24 0;
#X connect 13 1 18 0;
#X connect 14 0 62 0;
#X connect 14 1 63 0;
#X connect 14 2 1 0;
#X connect 15 0 23 3;
#X connect 16 0 22 0;
#X connect 16 1 17 0;
#X connect 17 0 22 3;
#X connect 18 0 24 3;
#X connect 19 0 20 0;
#X connect 20 0 21 0;
#X connect 21 0 3 0;
#X connect 22 0 62 0;
#X connect 22 1 63 0;
#X connect 22 2 1 0;
#X connect 23 0 62 0;
#X connect 23 1 63 0;
#X connect 23 2 1 0;
#X connect 24 0 62 0;
#X connect 24 1 63 0;
#X connect 24 2 1 0;
#X connect 25 0 62 0;
#X connect 25 1 63 0;
#X connect 25 2 1 0;
#X connect 26 0 62 0;
#X connect 26 1 63 0;
#X connect 26 2 1 0;
#X connect 27 0 12 0;
#X connect 28 0 32 0;
#X connect 29 0 28 0;
#X connect 30 0 29 0;
#X connect 31 0 49 0;
#X connect 32 0 25 1;
#X connect 32 0 22 1;
#X connect 32 0 14 1;
#X connect 32 0 24 1;
#X connect 32 0 26 1;
#X connect 32 0 23 1;
#X connect 33 0 34 0;
#X connect 34 0 32 1;
#X connect 35 0 50 0;
#X connect 36 0 31 0;
#X connect 37 0 40 0;
#X connect 38 0 4 0;
#X connect 38 1 2 0;
#X connect 38 1 42 0;
#X connect 38 1 45 0;
#X connect 38 1 55 0;
#X connect 38 2 37 0;
#X connect 38 2 47 0;
#X connect 38 2 53 0;
#X connect 39 0 36 0;
#X connect 39 0 42 1;
#X connect 40 0 41 1;
#X connect 41 0 39 0;
#X connect 42 0 41 0;
#X connect 43 0 64 0;
#X connect 44 0 46 0;
#X connect 45 0 44 0;
#X connect 46 0 45 1;
#X connect 46 0 35 0;
#X connect 47 0 48 0;
#X connect 48 0 44 1;
#X connect 49 0 33 0;
#X connect 50 0 43 0;
#X connect 51 0 52 0;
#X connect 52 0 55 1;
#X connect 52 0 25 2;
#X connect 52 0 22 2;
#X connect 52 0 14 2;
#X connect 52 0 26 2;
#X connect 52 0 24 2;
#X connect 52 0 23 2;
#X connect 53 0 54 0;
#X connect 54 0 51 1;
#X connect 55 0 51 0;
#X connect 56 0 57 0;
#X connect 57 0 55 1;
#X connect 58 0 59 0;
#X connect 59 0 45 1;
#X connect 60 0 61 0;
#X connect 61 0 42 1;
#X connect 64 0 30 0;
#X connect 65 0 4 1;
#X connect 66 0 26 3;
#X connect 67 0 25 0;
#X connect 67 1 68 0;
#X connect 68 0 25 3;
#X connect 69 0 14 0;
#X connect 69 1 70 0;
#X connect 70 0 14 3;
