#N canvas 1084 37 450 300 12;
#X obj 28 15 inlet;
#X obj 26 264 outlet;
#X obj 28 42 sig~;
#X obj 28 66 delwrite~ del\$0 \$1;
#X obj 27 194 delread4~ del\$0 \$1;
#X obj 26 218 snapshot~;
#X obj 52 159 bang~;
#X obj 194 21 inlet;
#X obj 194 45 pack 0 10;
#X obj 194 69 line~;
#X obj 26 242 change;
#X connect 0 0 2 0;
#X connect 2 0 3 0;
#X connect 4 0 5 0;
#X connect 5 0 10 0;
#X connect 6 0 5 0;
#X connect 7 0 8 0;
#X connect 8 0 9 0;
#X connect 9 0 4 0;
#X connect 10 0 1 0;
