#N canvas 0 23 450 300 10;
#X obj 123 4 inlet;
#X obj 114 42 f;
#X obj 187 8 loadbang;
#X obj 187 30 metro 100;
#X obj 11 11 cnv 15 53 15 empty empty empty 20 12 0 14 -262130 -66577
0;
#X floatatom 12 12 7 0 0 0 - - -, f 7;
#X connect 0 0 1 1;
#X connect 1 0 5 0;
#X connect 2 0 3 0;
#X connect 3 0 1 0;
#X coords 0 -1 1 1 55 17 2 10 10;
