#N canvas 786 9 742 974 10;
#X obj 41 540 t b f;
#X obj 227 229 mtof;
#X obj 41 164 tgl 15 0 empty empty empty 17 7 0 10 -262144 -1 -1 1
1;
#X msg 41 94 1;
#X msg 141 78 0;
#X obj 41 182 change;
#N canvas 35 310 879 663 wobble 0;
#X obj 52 463 *~;
#X obj 52 364 +~;
#X obj 52 340 *~;
#X obj 67 294 *~;
#X text 76 463 sample length;
#X text 147 404 done outlet;
#N canvas 233 130 605 600 oneshotsaw 0;
#X obj 199 26 inlet trigger;
#X obj 148 504 outlet~ control signal 0-->1;
#X obj 301 23 inlet direction;
#X obj 159 325 -~ 1;
#X obj 159 375 *~;
#X obj 135 375 *~;
#X msg 106 158 0;
#X msg 255 231 0;
#X msg 265 252 1;
#X msg 285 231 0;
#X msg 295 252 1;
#X obj 371 484 outlet done;
#X obj 199 70 t b b b;
#X msg 339 407 0;
#X obj 135 287 clip~ 0 1;
#X obj 37 187 phasor~ 0.25;
#X obj 37 282 sel 1;
#X obj 37 236 snapshot~;
#X obj 72 211 bang~;
#X obj 30 26 inlet~ file length;
#X obj 371 461 select 0;
#X obj 371 438 change;
#X msg 371 407 1;
#X obj 148 476 *~;
#X obj 52 53 +~ 1e-006;
#X obj 36 105 sig~ 1000;
#X obj 36 126 /~;
#X obj 159 347 abs~;
#X obj 255 211 select 1 0;
#X obj 37 262 > 0.992;
#X obj 468 466 outlet~ onedirection;
#X connect 0 0 12 0;
#X connect 2 0 28 0;
#X connect 3 0 27 0;
#X connect 4 0 23 0;
#X connect 5 0 23 0;
#X connect 6 0 15 1;
#X connect 7 0 4 1;
#X connect 8 0 5 1;
#X connect 9 0 5 1;
#X connect 10 0 4 1;
#X connect 12 1 6 0;
#X connect 12 2 22 0;
#X connect 13 0 21 0;
#X connect 14 0 3 0;
#X connect 14 0 5 0;
#X connect 15 0 17 0;
#X connect 15 0 14 0;
#X connect 15 0 30 0;
#X connect 16 0 13 0;
#X connect 17 0 29 0;
#X connect 18 0 17 0;
#X connect 19 0 24 0;
#X connect 20 0 11 0;
#X connect 21 0 20 0;
#X connect 21 0 23 1;
#X connect 22 0 21 0;
#X connect 23 0 1 0;
#X connect 24 0 26 1;
#X connect 25 0 26 0;
#X connect 26 0 15 0;
#X connect 27 0 4 0;
#X connect 28 0 7 0;
#X connect 28 0 8 0;
#X connect 28 1 9 0;
#X connect 28 1 10 0;
#X connect 29 0 16 0;
#X restore 52 393 pd oneshotsaw;
#X text 83 341 x wobble;
#X text 39 249 duration;
#X obj 148 110 inlet~ wobble;
#X obj 263 110 inlet~ wobbleoffset;
#X obj 44 107 inlet trigger;
#X obj 587 53 inlet direction;
#X obj 52 507 outlet~;
#X obj 127 508 outlet done;
#X text 500 198 milliseconds;
#X text 92 295 duration (ms) x speed factor;
#X obj 231 508 outlet~ rawsaw;
#X obj 452 197 /~ 44.1;
#X obj 440 55 inlet samplelength;
#X obj 50 485 +~ 0;
#X connect 0 0 20 0;
#X connect 1 0 6 0;
#X connect 2 0 1 0;
#X connect 3 0 2 0;
#X connect 3 0 1 1;
#X connect 6 0 0 0;
#X connect 6 1 14 0;
#X connect 6 2 17 0;
#X connect 9 0 2 1;
#X connect 10 0 3 0;
#X connect 11 0 6 1;
#X connect 12 0 6 2;
#X connect 18 0 3 1;
#X connect 19 0 0 1;
#X connect 19 0 18 0;
#X connect 20 0 13 0;
#X restore 31 741 pd wobble;
#X obj 31 647 t b f;
#X obj 227 272 f \$3;
#X obj 237 35 inlet~ wobble;
#X obj 41 34 inlet pitch;
#X text 72 455 samplelength;
#X obj 138 921 outlet~;
#X obj 612 502 outlet;
#X obj 24 695 sig~;
#X text 272 265 the nearest reference octave frequency;
#X text 194 186 millisecond length;
#X text 250 287 reference/requested pitch = playback ratio;
#X obj 160 40 r reset;
#X obj 24 672 f;
#X obj 149 787 tabread4~ \$1;
#X obj 236 623 *~;
#X obj 304 480 line~;
#X msg 304 458 0 \, 1 4000;
#X msg 370 458 1 \, 0 4000;
#X obj 304 502 *~;
#X obj 304 563 *~;
#X obj 305 368 f;
#X obj 204 920 outlet~;
#X obj 372 702 line~;
#X obj 372 537 select 0 1;
#X obj 373 517 random 2;
#X obj 361 728 *~;
#X obj 146 901 *~;
#X obj 204 901 *~;
#X obj 401 768 *~;
#X obj 372 558 random 50;
#X obj 372 579 / 50;
#X obj 456 578 random 50;
#X obj 456 600 / 50;
#X obj 150 872 *~;
#X obj 612 458 ==;
#X obj 41 143 t f f;
#X obj 612 480 sel 1;
#X obj 182 208 moses 20;
#X text 445 420 if voice is active \, pass pitch to next object;
#X obj 344 85 random;
#X obj 344 107 / 1000;
#X obj 305 411 random 4;
#X obj 304 431 select 0 1 2 3;
#X obj 344 129 sqrt;
#X obj 377 39 inlet wobble-intensity;
#X msg 442 458 1 4;
#X msg 511 458 0 4;
#X obj 315 542 line~;
#X msg 315 522 \$1 4;
#X msg 203 374 set C3alt;
#X msg 140 393 set \$1;
#X obj 41 74 t b f b;
#X obj 519 71 inlet tabalt;
#X msg 68 310 bang;
#X msg 552 117 set set \$1;
#X obj 520 94 t b s;
#X msg 513 115 1;
#X obj 305 391 t b f b;
#X obj 503 480 random 4000;
#X obj 503 502 / 4000;
#X obj 503 524 pow 2;
#X obj 503 546 * 4000;
#X obj 372 622 pack f f 0;
#X obj 456 622 pack f f 0;
#X obj 413 647 unpack f f f;
#X msg 372 674 \$3 \, \$1 \$2;
#X msg 456 673 \$1 \, \$3 \$2;
#X obj 361 750 *~;
#X obj 401 790 *~;
#X obj 401 724 -~ 1;
#X obj 227 252 t b f;
#X obj 227 292 /;
#X obj 401 746 abs~;
#X obj 196 833 sig~ 1;
#X obj 196 854 -~;
#X obj 255 790 -~ 1;
#X obj 255 770 *~ 2;
#X obj 256 810 abs~;
#X floatatom 356 155 5 0 0 0 - - -;
#X obj 13 563 random 8;
#X obj 13 583 sel 0;
#X msg 13 625 0;
#X msg 40 606 1;
#X msg 171 88 1;
#X obj 86 205 switch~;
#X obj 120 9 r cpuload;
#X obj 41 114 spigot;
#X obj 41 202 sel 1;
#X obj 41 222 t b b;
#X msg 111 308 bang;
#X obj 120 30 < 70;
#X obj 120 331 array size \$1alt;
#X obj 84 349 array size \$1;
#X obj 140 374 symbol \$1;
#X obj 41 455 f;
#X text 56 584 forward or reverse;
#X obj 111 138 bng 15 250 50 0 empty empty empty 17 7 0 10 -262144
-1 -1;
#X floatatom 58 486 7 0 0 0 - - -;
#X obj 68 258 random 100;
#X obj 68 283 moses 60;
#X obj 143 247 r dur_prob;
#X obj 124 689 / 44.1;
#X floatatom 124 731 7 0 0 0 - - -;
#X obj 124 710 * 0.009;
#X obj 236 746 clip~ 0 1;
#X obj 56 794 del 0;
#X obj 256 830 pow~ 32;
#X obj 236 725 *~ 1.04;
#X connect 0 0 86 0;
#X connect 0 1 6 3;
#X connect 1 0 77 0;
#X connect 2 0 5 0;
#X connect 3 0 93 0;
#X connect 4 0 2 0;
#X connect 5 0 41 1;
#X connect 5 0 91 0;
#X connect 5 0 94 0;
#X connect 6 0 20 0;
#X connect 6 1 112 0;
#X connect 6 2 114 0;
#X connect 7 0 6 0;
#X connect 7 1 6 4;
#X connect 8 0 78 0;
#X connect 9 0 21 0;
#X connect 10 0 58 0;
#X connect 14 0 6 2;
#X connect 18 0 4 0;
#X connect 18 0 90 0;
#X connect 19 0 14 0;
#X connect 20 0 40 0;
#X connect 21 0 6 1;
#X connect 22 0 25 0;
#X connect 22 0 25 1;
#X connect 23 0 22 0;
#X connect 24 0 22 0;
#X connect 25 0 26 0;
#X connect 26 0 21 1;
#X connect 27 0 64 0;
#X connect 29 0 32 0;
#X connect 29 0 32 1;
#X connect 29 0 76 0;
#X connect 30 0 36 0;
#X connect 30 1 38 0;
#X connect 31 0 30 0;
#X connect 32 0 74 0;
#X connect 32 0 74 1;
#X connect 33 0 12 0;
#X connect 34 0 28 0;
#X connect 35 0 75 0;
#X connect 35 0 75 1;
#X connect 36 0 37 0;
#X connect 37 0 69 0;
#X connect 38 0 39 0;
#X connect 39 0 70 0;
#X connect 40 0 34 0;
#X connect 40 0 33 0;
#X connect 41 0 43 0;
#X connect 42 0 2 0;
#X connect 42 1 41 0;
#X connect 43 0 13 0;
#X connect 44 1 1 0;
#X connect 46 0 47 0;
#X connect 47 0 50 0;
#X connect 48 0 49 0;
#X connect 49 0 23 0;
#X connect 49 1 24 0;
#X connect 49 2 52 0;
#X connect 49 3 53 0;
#X connect 50 0 27 1;
#X connect 50 0 85 0;
#X connect 51 0 46 1;
#X connect 52 0 22 0;
#X connect 53 0 22 0;
#X connect 54 0 26 1;
#X connect 55 0 54 0;
#X connect 56 0 20 0;
#X connect 57 0 20 0;
#X connect 58 0 3 0;
#X connect 58 1 44 0;
#X connect 59 0 62 0;
#X connect 60 0 99 0;
#X connect 60 0 100 0;
#X connect 61 0 56 0;
#X connect 62 0 63 0;
#X connect 62 1 61 0;
#X connect 64 0 31 0;
#X connect 64 0 48 0;
#X connect 64 1 55 0;
#X connect 64 2 65 0;
#X connect 65 0 66 0;
#X connect 66 0 67 0;
#X connect 67 0 68 0;
#X connect 68 0 69 1;
#X connect 68 0 70 1;
#X connect 69 0 72 0;
#X connect 69 0 71 0;
#X connect 70 0 73 0;
#X connect 70 0 71 0;
#X connect 71 0 69 2;
#X connect 71 0 70 2;
#X connect 72 0 29 0;
#X connect 73 0 29 0;
#X connect 74 0 33 1;
#X connect 75 0 34 1;
#X connect 76 0 79 0;
#X connect 77 0 8 0;
#X connect 77 1 78 1;
#X connect 78 0 19 1;
#X connect 79 0 35 0;
#X connect 79 0 35 1;
#X connect 80 0 81 0;
#X connect 81 0 40 1;
#X connect 82 0 84 0;
#X connect 83 0 82 0;
#X connect 84 0 113 0;
#X connect 86 0 87 0;
#X connect 87 0 88 0;
#X connect 87 1 89 0;
#X connect 88 0 7 0;
#X connect 89 0 7 0;
#X connect 90 0 6 4;
#X connect 92 0 97 0;
#X connect 93 0 42 0;
#X connect 94 0 95 0;
#X connect 95 0 19 0;
#X connect 95 0 27 0;
#X connect 95 0 101 0;
#X connect 95 1 46 0;
#X connect 95 1 105 0;
#X connect 96 0 56 0;
#X connect 96 0 98 0;
#X connect 97 0 93 1;
#X connect 98 0 101 1;
#X connect 99 0 101 1;
#X connect 100 0 57 0;
#X connect 101 0 0 0;
#X connect 101 0 104 0;
#X connect 101 0 108 0;
#X connect 103 0 95 0;
#X connect 105 0 106 0;
#X connect 106 0 60 0;
#X connect 106 1 96 0;
#X connect 107 0 106 1;
#X connect 108 0 110 0;
#X connect 110 0 109 0;
#X connect 111 0 83 0;
#X connect 112 0 4 0;
#X connect 113 0 81 1;
#X connect 114 0 111 0;
